<svg width="24" height="24" viewBox="0 0 24 24" fill="none" xmlns="http://www.w3.org/2000/svg">
<path d="M19.9976 3H5.99756C4.89299 3 3.99756 3.89543 3.99756 5V21C3.99756 22.1046 4.89299 23 5.99756 23H19.9976C21.1021 23 21.9976 22.1046 21.9976 21V5C21.9976 3.89543 21.1021 3 19.9976 3Z" fill="#B5B5B6"/>
<path d="M17.9976 1H3.99756C2.89299 1 1.99756 1.89543 1.99756 3V19C1.99756 20.1046 2.89299 21 3.99756 21H17.9976C19.1021 21 19.9976 20.1046 19.9976 19V3C19.9976 1.89543 19.1021 1 17.9976 1Z" fill="#EBEBEB"/>
<path d="M16.9976 17H4.99756C4.44527 17 3.99756 17.4477 3.99756 18C3.99756 18.5523 4.44527 19 4.99756 19H16.9976C17.5498 19 17.9976 18.5523 17.9976 18C17.9976 17.4477 17.5498 17 16.9976 17Z" fill="#727272"/>
<path d="M16.9976 13H4.99756C4.44527 13 3.99756 13.4477 3.99756 14C3.99756 14.5523 4.44527 15 4.99756 15H16.9976C17.5498 15 17.9976 14.5523 17.9976 14C17.9976 13.4477 17.5498 13 16.9976 13Z" fill="#727272"/>
<path d="M16.9976 3H4.99756C4.44527 3 3.99756 3.44772 3.99756 4V10C3.99756 10.5523 4.44527 11 4.99756 11H16.9976C17.5498 11 17.9976 10.5523 17.9976 10V4C17.9976 3.44772 17.5498 3 16.9976 3Z" fill="white"/>
<path fill-rule="evenodd" clip-rule="evenodd" d="M10.9976 7C11.826 7 12.4976 6.32843 12.4976 5.5C12.4976 4.67157 11.826 4 10.9976 4C10.1692 4 9.49756 4.67157 9.49756 5.5C9.49756 6.32843 10.1692 7 10.9976 7ZM10.9976 7C12.6851 7 13.9976 7.86441 13.9976 8.9322V10H7.99756V9.0339C7.99756 7.91525 9.31006 7 10.9976 7Z" fill="#727272"/>
</svg>
